<mxfile host="app.diagrams.net" agent="Mozilla/5.0 (Windows NT 10.0; Win64; x64; rv:130.0) Gecko/20100101 Firefox/130.0" version="24.7.16">
  <diagram name="P치gina-1" id="6BkNUf3GOKqOvmlrvZ54">
    <mxGraphModel dx="1434" dy="782" grid="1" gridSize="10" guides="1" tooltips="1" connect="1" arrows="1" fold="1" page="1" pageScale="1" pageWidth="827" pageHeight="1169" math="0" shadow="0">
      <root>
        <mxCell id="0" />
        <mxCell id="1" parent="0" />
        <mxCell id="VTeSwmOb21rI_zg5XCPz-3" style="edgeStyle=orthogonalEdgeStyle;rounded=0;orthogonalLoop=1;jettySize=auto;html=1;exitX=0.5;exitY=1;exitDx=0;exitDy=0;entryX=0;entryY=0.5;entryDx=0;entryDy=0;" edge="1" parent="1" source="VTeSwmOb21rI_zg5XCPz-1" target="VTeSwmOb21rI_zg5XCPz-2">
          <mxGeometry relative="1" as="geometry">
            <Array as="points">
              <mxPoint x="70" y="130" />
            </Array>
          </mxGeometry>
        </mxCell>
        <mxCell id="VTeSwmOb21rI_zg5XCPz-1" value="Inicio" style="rounded=0;whiteSpace=wrap;html=1;fillColor=#e1d5e7;strokeColor=#9673a6;" vertex="1" parent="1">
          <mxGeometry x="10" y="10" width="120" height="60" as="geometry" />
        </mxCell>
        <mxCell id="VTeSwmOb21rI_zg5XCPz-5" style="edgeStyle=orthogonalEdgeStyle;rounded=0;orthogonalLoop=1;jettySize=auto;html=1;exitX=1;exitY=0.5;exitDx=0;exitDy=0;entryX=0;entryY=0.5;entryDx=0;entryDy=0;" edge="1" parent="1" source="VTeSwmOb21rI_zg5XCPz-2" target="VTeSwmOb21rI_zg5XCPz-4">
          <mxGeometry relative="1" as="geometry" />
        </mxCell>
        <mxCell id="VTeSwmOb21rI_zg5XCPz-2" value="Soluciones" style="rounded=0;whiteSpace=wrap;html=1;fillColor=#d5e8d4;strokeColor=#82b366;" vertex="1" parent="1">
          <mxGeometry x="110" y="100" width="120" height="60" as="geometry" />
        </mxCell>
        <mxCell id="VTeSwmOb21rI_zg5XCPz-10" style="edgeStyle=orthogonalEdgeStyle;rounded=0;orthogonalLoop=1;jettySize=auto;html=1;exitX=1;exitY=0.5;exitDx=0;exitDy=0;entryX=0;entryY=0.5;entryDx=0;entryDy=0;" edge="1" parent="1" source="VTeSwmOb21rI_zg5XCPz-4" target="VTeSwmOb21rI_zg5XCPz-12">
          <mxGeometry relative="1" as="geometry">
            <mxPoint x="400" y="209.9999999999999" as="targetPoint" />
          </mxGeometry>
        </mxCell>
        <mxCell id="VTeSwmOb21rI_zg5XCPz-4" value="Servicios" style="rounded=0;whiteSpace=wrap;html=1;fillColor=#dae8fc;strokeColor=#6c8ebf;" vertex="1" parent="1">
          <mxGeometry x="300" y="100" width="120" height="60" as="geometry" />
        </mxCell>
        <mxCell id="VTeSwmOb21rI_zg5XCPz-22" style="edgeStyle=orthogonalEdgeStyle;rounded=0;orthogonalLoop=1;jettySize=auto;html=1;exitX=1;exitY=0.5;exitDx=0;exitDy=0;entryX=0;entryY=0.5;entryDx=0;entryDy=0;" edge="1" parent="1" source="VTeSwmOb21rI_zg5XCPz-6" target="VTeSwmOb21rI_zg5XCPz-19">
          <mxGeometry relative="1" as="geometry">
            <Array as="points" />
          </mxGeometry>
        </mxCell>
        <mxCell id="VTeSwmOb21rI_zg5XCPz-6" value="Productos" style="rounded=0;whiteSpace=wrap;html=1;fillColor=#dae8fc;strokeColor=#6c8ebf;" vertex="1" parent="1">
          <mxGeometry x="300" y="370" width="120" height="60" as="geometry" />
        </mxCell>
        <mxCell id="VTeSwmOb21rI_zg5XCPz-8" style="edgeStyle=orthogonalEdgeStyle;rounded=0;orthogonalLoop=1;jettySize=auto;html=1;entryX=0;entryY=0.5;entryDx=0;entryDy=0;" edge="1" parent="1" target="VTeSwmOb21rI_zg5XCPz-6">
          <mxGeometry relative="1" as="geometry">
            <mxPoint x="260" y="130" as="sourcePoint" />
            <mxPoint x="189.75" y="300" as="targetPoint" />
            <Array as="points">
              <mxPoint x="260" y="210" />
              <mxPoint x="260" y="520" />
            </Array>
          </mxGeometry>
        </mxCell>
        <mxCell id="VTeSwmOb21rI_zg5XCPz-12" value="Domotica&amp;nbsp; e Inmotica" style="rounded=0;whiteSpace=wrap;html=1;fillColor=#f8cecc;strokeColor=#b85450;" vertex="1" parent="1">
          <mxGeometry x="510" y="100" width="120" height="60" as="geometry" />
        </mxCell>
        <mxCell id="VTeSwmOb21rI_zg5XCPz-13" value="Automatizaci칩n industrial" style="rounded=0;whiteSpace=wrap;html=1;fillColor=#f8cecc;strokeColor=#b85450;" vertex="1" parent="1">
          <mxGeometry x="510" y="190" width="120" height="60" as="geometry" />
        </mxCell>
        <mxCell id="VTeSwmOb21rI_zg5XCPz-14" style="edgeStyle=orthogonalEdgeStyle;rounded=0;orthogonalLoop=1;jettySize=auto;html=1;entryX=0;entryY=0.5;entryDx=0;entryDy=0;" edge="1" parent="1" target="VTeSwmOb21rI_zg5XCPz-13">
          <mxGeometry relative="1" as="geometry">
            <mxPoint x="460" y="130" as="sourcePoint" />
            <mxPoint x="369.75" y="310" as="targetPoint" />
            <Array as="points">
              <mxPoint x="460" y="220" />
            </Array>
          </mxGeometry>
        </mxCell>
        <mxCell id="VTeSwmOb21rI_zg5XCPz-15" value="Sistemas de Seguridad" style="rounded=0;whiteSpace=wrap;html=1;fillColor=#f8cecc;strokeColor=#b85450;" vertex="1" parent="1">
          <mxGeometry x="510" y="280" width="120" height="60" as="geometry" />
        </mxCell>
        <mxCell id="VTeSwmOb21rI_zg5XCPz-17" style="edgeStyle=orthogonalEdgeStyle;rounded=0;orthogonalLoop=1;jettySize=auto;html=1;entryX=0;entryY=0.5;entryDx=0;entryDy=0;" edge="1" parent="1" target="VTeSwmOb21rI_zg5XCPz-15">
          <mxGeometry relative="1" as="geometry">
            <mxPoint x="460" y="210" as="sourcePoint" />
            <mxPoint x="379.75" y="430" as="targetPoint" />
            <Array as="points">
              <mxPoint x="460" y="310" />
            </Array>
          </mxGeometry>
        </mxCell>
        <mxCell id="VTeSwmOb21rI_zg5XCPz-19" value="Lo m치s nuevo" style="rounded=0;whiteSpace=wrap;html=1;fillColor=#f8cecc;strokeColor=#b85450;" vertex="1" parent="1">
          <mxGeometry x="510" y="370" width="120" height="60" as="geometry" />
        </mxCell>
        <mxCell id="VTeSwmOb21rI_zg5XCPz-20" value="M치s vendidos" style="rounded=0;whiteSpace=wrap;html=1;fillColor=#f8cecc;strokeColor=#b85450;" vertex="1" parent="1">
          <mxGeometry x="510" y="460" width="120" height="60" as="geometry" />
        </mxCell>
        <mxCell id="VTeSwmOb21rI_zg5XCPz-21" value="Todos los productos" style="rounded=0;whiteSpace=wrap;html=1;fillColor=#f8cecc;strokeColor=#b85450;" vertex="1" parent="1">
          <mxGeometry x="510" y="550" width="120" height="60" as="geometry" />
        </mxCell>
        <mxCell id="VTeSwmOb21rI_zg5XCPz-23" style="edgeStyle=orthogonalEdgeStyle;rounded=0;orthogonalLoop=1;jettySize=auto;html=1;entryX=0;entryY=0.5;entryDx=0;entryDy=0;" edge="1" parent="1" target="VTeSwmOb21rI_zg5XCPz-21">
          <mxGeometry relative="1" as="geometry">
            <mxPoint x="460" y="460" as="sourcePoint" />
            <mxPoint x="369.74" y="680" as="targetPoint" />
            <Array as="points">
              <mxPoint x="460" y="490" />
              <mxPoint x="460" y="580" />
            </Array>
          </mxGeometry>
        </mxCell>
        <mxCell id="VTeSwmOb21rI_zg5XCPz-24" style="edgeStyle=orthogonalEdgeStyle;rounded=0;orthogonalLoop=1;jettySize=auto;html=1;entryX=0;entryY=0.5;entryDx=0;entryDy=0;" edge="1" parent="1" target="VTeSwmOb21rI_zg5XCPz-20">
          <mxGeometry relative="1" as="geometry">
            <mxPoint x="450" y="400" as="sourcePoint" />
            <mxPoint x="369.74" y="600" as="targetPoint" />
            <Array as="points">
              <mxPoint x="460" y="400" />
              <mxPoint x="460" y="490" />
            </Array>
          </mxGeometry>
        </mxCell>
        <mxCell id="VTeSwmOb21rI_zg5XCPz-25" value="Proyectos" style="rounded=0;whiteSpace=wrap;html=1;fillColor=#d5e8d4;strokeColor=#82b366;" vertex="1" parent="1">
          <mxGeometry x="110" y="190" width="120" height="60" as="geometry" />
        </mxCell>
        <mxCell id="VTeSwmOb21rI_zg5XCPz-26" value="Contacto" style="rounded=0;whiteSpace=wrap;html=1;fillColor=#d5e8d4;strokeColor=#82b366;" vertex="1" parent="1">
          <mxGeometry x="110" y="280" width="120" height="60" as="geometry" />
        </mxCell>
        <mxCell id="VTeSwmOb21rI_zg5XCPz-27" style="edgeStyle=orthogonalEdgeStyle;rounded=0;orthogonalLoop=1;jettySize=auto;html=1;entryX=0;entryY=0.5;entryDx=0;entryDy=0;" edge="1" parent="1" target="VTeSwmOb21rI_zg5XCPz-25">
          <mxGeometry relative="1" as="geometry">
            <mxPoint x="70" y="130" as="sourcePoint" />
            <mxPoint x="220" y="750" as="targetPoint" />
            <Array as="points">
              <mxPoint x="70" y="220" />
            </Array>
          </mxGeometry>
        </mxCell>
        <mxCell id="VTeSwmOb21rI_zg5XCPz-28" style="edgeStyle=orthogonalEdgeStyle;rounded=0;orthogonalLoop=1;jettySize=auto;html=1;entryX=0;entryY=0.5;entryDx=0;entryDy=0;" edge="1" parent="1" target="VTeSwmOb21rI_zg5XCPz-26">
          <mxGeometry relative="1" as="geometry">
            <mxPoint x="70" y="130" as="sourcePoint" />
            <mxPoint x="80" y="320" as="targetPoint" />
            <Array as="points">
              <mxPoint x="70" y="310" />
            </Array>
          </mxGeometry>
        </mxCell>
      </root>
    </mxGraphModel>
  </diagram>
</mxfile>
